<?xml version="1.0" encoding="utf-8"?>
<!-- Generator: Adobe Illustrator 22.0.1, SVG Export Plug-In . SVG Version: 6.00 Build 0)  -->
<svg version="1.1" id="Layer_1" xmlns="http://www.w3.org/2000/svg" xmlns:xlink="http://www.w3.org/1999/xlink" x="0px" y="0px"
	 viewBox="0 0 289.7 132.9" style="enable-background:new 0 0 289.7 132.9;" xml:space="preserve">
<style type="text/css">
	.st0{fill:#CFB87C;}
	.st1{fill:#FFFFFF;}
</style>
<polygon class="st0" points="117.6,0.5 107.8,10.3 107.8,44.2 117.6,54 128.4,54 128.4,62.3 138.3,72.1 166.9,72.1 176.9,62.3 
	176.9,36 181.9,36 181.9,18.5 161.3,18.5 161.3,10.3 151.5,0.5 "/>
<polygon points="151.1,1.5 160.3,10.7 160.3,19.6 180.9,19.6 180.9,35 175.8,35 175.8,61.8 166.5,71.1 138.7,71.1 129.4,61.8 
	129.4,53 118,53 108.8,43.8 108.8,10.7 118,1.5 "/>
<polygon class="st1" points="119.1,50.5 131.9,50.5 131.9,60.8 139.7,68.5 165.5,68.5 173.3,60.8 173.3,32.5 178.4,32.5 178.4,22.1 
	162.8,22.1 162.8,58.2 142.3,58.2 142.3,50.5 150.1,50.5 157.8,42.7 157.8,32.5 147.4,32.5 147.4,40.1 142.3,40.1 142.3,22.1 
	126.8,22.1 126.8,32.5 131.9,32.5 131.9,40.1 121.6,40.1 121.6,14.3 147.4,14.3 147.4,22.1 157.8,22.1 157.8,11.8 150.1,4.1 
	119.1,4.1 111.3,11.8 111.3,42.7 "/>
<polygon class="st0" points="141,49.2 149.5,49.2 156.5,42.2 156.5,33.7 148.7,33.7 148.7,41.4 141,41.4 141,23.4 128.1,23.4 
	128.1,31.2 133.2,31.2 133.2,41.4 120.4,41.4 120.4,13 148.7,13 148.7,20.8 156.5,20.8 156.5,12.3 149.5,5.3 119.6,5.3 112.6,12.3 
	112.6,42.2 119.6,49.2 133.2,49.2 133.2,60.3 140.3,67.3 164.9,67.3 172,60.2 172,31.2 177.1,31.2 177.1,23.4 164.1,23.4 
	164.1,59.5 141,59.5 "/>
<g>
	<path class="st1" d="M4.7,89.7h2v13.3c0,5,2.3,6.9,6.3,6.9c4,0,6.3-1.9,6.3-6.9V89.7h2v13.7c0,4.4-2.4,8.2-8.3,8.2
		c-5.9,0-8.3-3.8-8.3-8.2V89.7z"/>
	<path class="st1" d="M25.1,95.6H27v2.7h0.1c0.7-1.9,2.8-3.1,4.9-3.1c4.3,0,5.7,2.3,5.7,6v10h-1.9v-9.7c0-2.7-0.9-4.7-3.9-4.7
		c-3,0-4.8,2.3-4.9,5.3v9h-1.9V95.6z"/>
	<path class="st1" d="M41.3,89.7h1.9v3h-1.9V89.7z M41.3,95.6h1.9v15.5h-1.9V95.6z"/>
	<path class="st1" d="M45.1,95.6h2.1l4.9,13.6h0.1l4.8-13.6h1.9L53,111.1h-2L45.1,95.6z"/>
	<path class="st1" d="M61.8,103.9c0,2.8,1.5,6.1,5.1,6.1c2.8,0,4.3-1.6,4.9-4h1.9c-0.8,3.5-2.9,5.5-6.8,5.5c-4.9,0-7-3.8-7-8.2
		c0-4.1,2.1-8.2,7-8.2c5,0,7,4.4,6.8,8.7H61.8z M71.8,102.3c-0.1-2.9-1.9-5.5-4.9-5.5c-3.1,0-4.8,2.7-5.1,5.5H71.8z"/>
	<path class="st1" d="M76.3,95.6H78v3.6h0.1c1-2.5,3.1-4,5.8-3.8v1.9c-3.4-0.2-5.8,2.3-5.8,5.5v8.2h-1.9V95.6z"/>
	<path class="st1" d="M95,100.1c-0.1-2.3-1.9-3.4-4-3.4c-1.7,0-3.7,0.7-3.7,2.7c0,1.7,1.9,2.3,3.2,2.6l2.5,0.6
		c2.2,0.3,4.4,1.6,4.4,4.3c0,3.4-3.3,4.7-6.2,4.7c-3.6,0-6.1-1.7-6.4-5.5h1.9c0.1,2.5,2,3.9,4.6,3.9c1.8,0,4.2-0.8,4.2-2.9
		c0-1.8-1.7-2.4-3.4-2.8l-2.4-0.5c-2.5-0.7-4.3-1.5-4.3-4.1c0-3.2,3.1-4.4,5.8-4.4c3.1,0,5.5,1.6,5.7,5H95z"/>
	<path class="st1" d="M100.2,89.7h1.9v3h-1.9V89.7z M100.2,95.6h1.9v15.5h-1.9V95.6z"/>
	<path class="st1" d="M108.7,95.6h3.1v1.6h-3.1v10.4c0,1.2,0.2,2,1.5,2c0.5,0,1.1,0,1.6-0.1v1.6c-0.6,0-1.1,0.1-1.7,0.1
		c-2.5,0-3.4-0.8-3.4-3.5V97.2h-2.7v-1.6h2.7V91h1.9V95.6z"/>
	<path class="st1" d="M112.8,95.6h2l5.1,13.2l4.8-13.2h1.9l-6.7,17.8c-1.1,2.6-1.7,3.4-4.1,3.4c-0.8,0-1.1,0-1.4-0.1v-1.6
		c0.5,0.1,0.9,0.1,1.3,0.1c1.7,0,2.1-1,2.7-2.4l0.7-1.8L112.8,95.6z"/>
	<path class="st1" d="M150.6,103.3c0,4.4-2.6,8.2-7.3,8.2c-4.7,0-7.3-3.8-7.3-8.2c0-4.4,2.6-8.2,7.3-8.2
		C148.1,95.2,150.6,98.9,150.6,103.3z M137.9,103.3c0,3.3,1.8,6.6,5.4,6.6c3.6,0,5.4-3.3,5.4-6.6c0-3.3-1.8-6.6-5.4-6.6
		C139.7,96.7,137.9,100,137.9,103.3z"/>
	<path class="st1" d="M159.4,97.2h-3.1v13.9h-1.9V97.2h-2.6v-1.6h2.6v-1.4c0-2.7,0.7-4.5,3.7-4.5c0.5,0,1,0,1.6,0.1v1.6
		c-0.5-0.1-0.9-0.1-1.4-0.1c-2.1,0-2,1.3-2.1,3v1.3h3.1V97.2z"/>
	<path class="st1" d="M185.6,96.1c-0.7-3.3-3.5-5.2-6.6-5.2c-5.7,0-8.1,4.7-8.1,9.4c0,4.7,2.4,9.4,8.1,9.4c4,0,6.5-3.1,6.9-6.9h2
		c-0.6,5.2-3.9,8.6-8.9,8.6c-6.8,0-10.1-5.3-10.1-11.2c0-5.8,3.4-11.2,10.1-11.2c4,0,8.1,2.4,8.6,6.9H185.6z"/>
	<path class="st1" d="M204.6,103.3c0,4.4-2.6,8.2-7.3,8.2c-4.7,0-7.3-3.8-7.3-8.2c0-4.4,2.6-8.2,7.3-8.2
		C202,95.2,204.6,98.9,204.6,103.3z M191.8,103.3c0,3.3,1.8,6.6,5.4,6.6c3.6,0,5.4-3.3,5.4-6.6c0-3.3-1.8-6.6-5.4-6.6
		C193.6,96.7,191.8,100,191.8,103.3z"/>
	<path class="st1" d="M207.4,89.7h1.9v21.4h-1.9V89.7z"/>
	<path class="st1" d="M226.8,103.3c0,4.4-2.6,8.2-7.3,8.2c-4.7,0-7.3-3.8-7.3-8.2c0-4.4,2.6-8.2,7.3-8.2
		C224.2,95.2,226.8,98.9,226.8,103.3z M214,103.3c0,3.3,1.8,6.6,5.4,6.6c3.6,0,5.4-3.3,5.4-6.6c0-3.3-1.8-6.6-5.4-6.6
		C215.8,96.7,214,100,214,103.3z"/>
	<path class="st1" d="M229.6,95.6h1.7v3.6h0.1c1-2.5,3.1-4,5.8-3.8v1.9c-3.4-0.2-5.8,2.3-5.8,5.5v8.2h-1.9V95.6z"/>
	<path class="st1" d="M238.9,100.3c0.2-3.6,2.7-5.2,6.3-5.2c2.7,0,5.7,0.8,5.7,5v8.2c0,0.7,0.4,1.1,1.1,1.1c0.2,0,0.5-0.1,0.6-0.1
		v1.6c-0.4,0.1-0.7,0.1-1.2,0.1c-1.9,0-2.2-1.1-2.2-2.7H249c-1.3,2-2.7,3.2-5.6,3.2c-2.8,0-5.2-1.4-5.2-4.5c0-4.3,4.2-4.5,8.3-5
		c1.6-0.2,2.4-0.4,2.4-2.1c0-2.5-1.8-3.2-4-3.2c-2.3,0-4.1,1.1-4.1,3.6H238.9z M249,102.6L249,102.6c-0.3,0.5-1.1,0.6-1.6,0.7
		c-3.2,0.6-7.2,0.5-7.2,3.6c0,1.9,1.7,3.1,3.5,3.1c2.9,0,5.4-1.8,5.4-4.9V102.6z"/>
	<path class="st1" d="M268.2,111.1h-1.7v-2.9h-0.1c-0.8,2-3.3,3.4-5.5,3.4c-4.7,0-7-3.8-7-8.2c0-4.4,2.2-8.2,7-8.2
		c2.3,0,4.6,1.2,5.4,3.4h0.1v-8.9h1.9V111.1z M260.9,109.9c4,0,5.4-3.4,5.4-6.6c0-3.2-1.4-6.6-5.4-6.6c-3.6,0-5.1,3.4-5.1,6.6
		C255.9,106.5,257.3,109.9,260.9,109.9z"/>
	<path class="st1" d="M285.7,103.3c0,4.4-2.6,8.2-7.3,8.2c-4.7,0-7.3-3.8-7.3-8.2c0-4.4,2.6-8.2,7.3-8.2
		C283.1,95.2,285.7,98.9,285.7,103.3z M273,103.3c0,3.3,1.8,6.6,5.4,6.6c3.6,0,5.4-3.3,5.4-6.6c0-3.3-1.8-6.6-5.4-6.6
		C274.8,96.7,273,100,273,103.3z"/>
</g>
<g>
	<path class="st1" d="M0.9,122.3h2.5c0.6,0,1.4,0,1.8,0.2c0.4,0.3,0.8,0.8,0.8,1.4c0,0.7-0.4,1.3-1,1.5v0c0.8,0.2,1.3,0.8,1.3,1.6
		c0,1-0.7,1.9-2.1,1.9H0.9V122.3z M1.8,125.2h1.8c1,0,1.4-0.4,1.4-1.1c0-0.9-0.7-1.1-1.4-1.1H1.8V125.2z M1.8,128.3h2.3
		c0.8,0,1.3-0.5,1.3-1.2c0-0.9-0.7-1.1-1.5-1.1H1.8V128.3z"/>
	<path class="st1" d="M9.7,124.1c1.6,0,2.4,1.1,2.4,2.6c0,1.4-0.8,2.6-2.4,2.6c-1.6,0-2.4-1.1-2.4-2.6
		C7.3,125.2,8.1,124.1,9.7,124.1z M9.7,128.5c0.8,0,1.5-0.7,1.5-1.9c0-1.2-0.7-1.9-1.5-1.9c-0.8,0-1.5,0.7-1.5,1.9
		C8.1,127.8,8.8,128.5,9.7,128.5z"/>
	<path class="st1" d="M17.3,129.1h-0.8v-0.8h0c-0.3,0.6-0.9,0.9-1.6,0.9c-1.3,0-1.7-0.7-1.7-1.8v-3.2H14v3.3c0,0.6,0.4,1,1,1
		c1,0,1.5-0.7,1.5-1.5v-2.8h0.8V129.1z"/>
	<path class="st1" d="M18.8,122.3h0.8v6.8h-0.8V122.3z"/>
	<path class="st1" d="M25.5,129.1h-0.8v-0.7h0c-0.3,0.5-0.9,0.8-1.6,0.8c-1.5,0-2.3-1.2-2.3-2.6c0-1.4,0.7-2.6,2.2-2.6
		c0.5,0,1.2,0.2,1.6,0.8h0v-2.5h0.8V129.1z M23.2,128.5c1.1,0,1.5-0.9,1.5-1.9c0-1-0.4-1.9-1.5-1.9c-1.1,0-1.5,0.9-1.5,1.9
		C21.7,127.6,22.2,128.5,23.2,128.5z"/>
	<path class="st1" d="M31.2,127.5c-0.2,1.1-1,1.7-2.1,1.7c-1.6,0-2.3-1.1-2.4-2.6c0-1.5,1-2.6,2.3-2.6c1.7,0,2.3,1.6,2.2,2.8h-3.7
		c0,0.9,0.5,1.6,1.5,1.6c0.7,0,1.1-0.3,1.3-1H31.2z M30.4,126.2c0-0.8-0.6-1.4-1.4-1.4c-0.8,0-1.4,0.6-1.4,1.4H30.4z"/>
	<path class="st1" d="M32.3,124.2H33v1h0c0.4-0.8,0.9-1.2,1.8-1.1v0.9c-1.3,0-1.8,0.7-1.8,2v2.2h-0.8V124.2z"/>
</g>
<g>
	<path class="st1" d="M38.6,120.4h1.1v11h-1.1V120.4z"/>
</g>
<g>
	<path class="st1" d="M49.1,124.3c-0.2-1-1-1.4-1.9-1.4c-1.6,0-2.3,1.3-2.3,2.7c0,1.5,0.7,2.8,2.3,2.8c1.2,0,1.9-0.8,2-2h0.9
		c-0.2,1.7-1.2,2.7-2.9,2.7c-2.1,0-3.1-1.6-3.1-3.5c0-2,1.1-3.6,3.2-3.6c1.4,0,2.6,0.8,2.8,2.2H49.1z"/>
	<path class="st1" d="M53.4,124.1c1.6,0,2.4,1.1,2.4,2.6c0,1.4-0.8,2.6-2.4,2.6c-1.6,0-2.4-1.1-2.4-2.6
		C51,125.2,51.8,124.1,53.4,124.1z M53.4,128.5c0.8,0,1.5-0.7,1.5-1.9c0-1.2-0.7-1.9-1.5-1.9c-0.8,0-1.5,0.7-1.5,1.9
		C51.9,127.8,52.6,128.5,53.4,128.5z"/>
	<path class="st1" d="M57,122.3h0.8v6.8H57V122.3z"/>
	<path class="st1" d="M61.4,124.1c1.6,0,2.4,1.1,2.4,2.6c0,1.4-0.8,2.6-2.4,2.6c-1.6,0-2.4-1.1-2.4-2.6
		C59.1,125.2,59.9,124.1,61.4,124.1z M61.4,128.5c0.8,0,1.5-0.7,1.5-1.9c0-1.2-0.7-1.9-1.5-1.9c-0.8,0-1.5,0.7-1.5,1.9
		C59.9,127.8,60.6,128.5,61.4,128.5z"/>
	<path class="st1" d="M65,124.2h0.8v1h0c0.4-0.8,0.9-1.2,1.8-1.1v0.9c-1.3,0-1.8,0.7-1.8,2v2.2H65V124.2z"/>
	<path class="st1" d="M72.8,129.1c-0.1,0.1-0.3,0.1-0.6,0.1c-0.4,0-0.7-0.2-0.7-0.8c-0.4,0.5-1,0.8-1.7,0.8c-0.9,0-1.6-0.4-1.6-1.4
		c0-1.1,0.8-1.3,1.7-1.5c0.9-0.2,1.7-0.1,1.7-0.7c0-0.7-0.6-0.8-1.1-0.8c-0.7,0-1.2,0.2-1.2,0.9h-0.8c0-1.2,1-1.6,2.1-1.6
		c0.9,0,1.8,0.2,1.8,1.3v2.5c0,0.4,0,0.6,0.3,0.6c0.1,0,0.1,0,0.2,0V129.1z M71.5,126.5c-0.3,0.2-0.9,0.2-1.5,0.3
		c-0.5,0.1-1,0.3-1,0.9c0,0.5,0.5,0.7,1,0.7c1.1,0,1.5-0.7,1.5-1.1V126.5z"/>
	<path class="st1" d="M78.1,129.1h-0.8v-0.7h0c-0.3,0.5-0.9,0.8-1.6,0.8c-1.5,0-2.3-1.2-2.3-2.6c0-1.4,0.7-2.6,2.2-2.6
		c0.5,0,1.2,0.2,1.6,0.8h0v-2.5h0.8V129.1z M75.9,128.5c1.1,0,1.5-0.9,1.5-1.9c0-1-0.4-1.9-1.5-1.9c-1.1,0-1.5,0.9-1.5,1.9
		C74.3,127.6,74.8,128.5,75.9,128.5z"/>
	<path class="st1" d="M81.7,124.1c1.6,0,2.4,1.1,2.4,2.6c0,1.4-0.8,2.6-2.4,2.6c-1.6,0-2.4-1.1-2.4-2.6
		C79.4,125.2,80.2,124.1,81.7,124.1z M81.7,128.5c0.8,0,1.5-0.7,1.5-1.9c0-1.2-0.7-1.9-1.5-1.9c-0.8,0-1.5,0.7-1.5,1.9
		C80.2,127.8,80.9,128.5,81.7,128.5z"/>
	<path class="st1" d="M92.2,124.3c-0.1-1-0.8-1.4-1.7-1.4c-0.8,0-1.5,0.3-1.5,1.2c0,0.8,1.1,1,2.2,1.2c1.1,0.2,2.2,0.6,2.2,2
		c0,1.4-1.4,2-2.7,2c-1.5,0-2.8-0.7-2.8-2.4h0.9c0,1.1,1,1.6,2,1.6c0.8,0,1.7-0.3,1.7-1.2c0-0.9-1.1-1.1-2.2-1.3
		c-1.1-0.2-2.2-0.6-2.2-1.8c0-1.4,1.2-2,2.5-2c1.4,0,2.4,0.7,2.5,2.1H92.2z"/>
	<path class="st1" d="M94.6,124.2h0.8v0.7h0c0.3-0.5,0.9-0.8,1.6-0.8c1.5,0,2.3,1.2,2.3,2.6c0,1.4-0.7,2.6-2.2,2.6
		c-0.5,0-1.2-0.2-1.6-0.8h0v2.5h-0.8V124.2z M96.9,124.8c-1.1,0-1.5,0.9-1.5,1.9c0,1,0.4,1.9,1.5,1.9c1.1,0,1.5-0.9,1.5-1.9
		C98.4,125.7,97.9,124.8,96.9,124.8z"/>
	<path class="st1" d="M100.4,124.2h0.8v1h0c0.4-0.8,0.9-1.2,1.8-1.1v0.9c-1.3,0-1.8,0.7-1.8,2v2.2h-0.8V124.2z"/>
	<path class="st1" d="M104.7,123.3h-0.8v-1h0.8V123.3z M103.9,124.2h0.8v4.9h-0.8V124.2z"/>
	<path class="st1" d="M106.2,124.2h0.8v0.8h0c0.3-0.6,0.9-0.9,1.6-0.9c1.3,0,1.7,0.7,1.7,1.8v3.2h-0.8v-3.3c0-0.6-0.4-1-1-1
		c-1,0-1.5,0.7-1.5,1.5v2.8h-0.8V124.2z"/>
	<path class="st1" d="M116,128.7c0,1.6-0.7,2.4-2.3,2.4c-0.9,0-2-0.4-2-1.4h0.8c0,0.6,0.7,0.8,1.3,0.8c1.1,0,1.5-0.8,1.5-1.9v-0.3h0
		c-0.3,0.6-0.9,0.9-1.5,0.9c-1.5,0-2.2-1.1-2.2-2.5c0-1.2,0.6-2.6,2.3-2.6c0.6,0,1.2,0.3,1.5,0.8h0v-0.7h0.8V128.7z M115.2,126.5
		c0-0.9-0.4-1.8-1.4-1.8c-1,0-1.5,0.8-1.5,1.8c0,0.9,0.3,1.9,1.4,1.9C114.8,128.4,115.2,127.4,115.2,126.5z"/>
	<path class="st1" d="M117.9,127.5c0,0.7,0.7,1,1.3,1c0.5,0,1.2-0.1,1.2-0.7c0-0.6-0.8-0.7-1.6-0.9c-0.8-0.2-1.6-0.4-1.6-1.4
		c0-1,1-1.4,1.8-1.4c1.1,0,1.9,0.3,2,1.5h-0.8c-0.1-0.6-0.6-0.8-1.1-0.8c-0.5,0-1,0.1-1,0.6c0,0.6,0.9,0.7,1.6,0.9
		c0.8,0.2,1.6,0.4,1.6,1.4c0,1.2-1.1,1.5-2.1,1.5c-1.1,0-2-0.4-2.1-1.7H117.9z"/>
</g>
<g>
	<path class="st1" d="M125.3,120.4h1.1v11h-1.1V120.4z"/>
</g>
<g>
	<path class="st1" d="M131,122.3h2.3c2.1,0,3.3,1,3.3,3.2c0,2.3-1,3.6-3.3,3.6H131V122.3z M131.9,128.3h1.5c0.6,0,2.3-0.2,2.3-2.7
		c0-1.6-0.6-2.6-2.3-2.6h-1.5V128.3z"/>
	<path class="st1" d="M142,127.5c-0.2,1.1-1,1.7-2.1,1.7c-1.6,0-2.3-1.1-2.4-2.6c0-1.5,1-2.6,2.3-2.6c1.7,0,2.3,1.6,2.2,2.8h-3.7
		c0,0.9,0.5,1.6,1.5,1.6c0.7,0,1.1-0.3,1.3-1H142z M141.2,126.2c0-0.8-0.6-1.4-1.4-1.4c-0.8,0-1.3,0.6-1.4,1.4H141.2z"/>
	<path class="st1" d="M143.1,124.2h0.8v0.8h0c0.3-0.6,0.9-0.9,1.6-0.9c1.3,0,1.7,0.7,1.7,1.8v3.2h-0.8v-3.3c0-0.6-0.4-1-1-1
		c-1,0-1.5,0.7-1.5,1.5v2.8h-0.8V124.2z"/>
	<path class="st1" d="M150.9,129.1H150l-1.8-4.9h0.9l1.4,4.1h0l1.3-4.1h0.8L150.9,129.1z"/>
	<path class="st1" d="M157.8,127.5c-0.2,1.1-1,1.7-2.1,1.7c-1.6,0-2.3-1.1-2.4-2.6c0-1.5,1-2.6,2.3-2.6c1.7,0,2.3,1.6,2.2,2.8h-3.7
		c0,0.9,0.5,1.6,1.5,1.6c0.7,0,1.1-0.3,1.3-1H157.8z M157,126.2c0-0.8-0.6-1.4-1.4-1.4c-0.8,0-1.3,0.6-1.4,1.4H157z"/>
	<path class="st1" d="M158.9,124.2h0.8v1h0c0.4-0.8,0.9-1.2,1.8-1.1v0.9c-1.3,0-1.8,0.7-1.8,2v2.2h-0.8V124.2z"/>
</g>
<g>
	<path class="st1" d="M165.3,120.4h1.1v11h-1.1V120.4z"/>
</g>
<g>
	<path class="st1" d="M172.8,122.3h1l2.7,6.8h-1l-0.7-2h-2.9l-0.8,2h-0.9L172.8,122.3z M172.2,126.3h2.3l-1.1-3.2h0L172.2,126.3z"/>
	<path class="st1" d="M177.2,124.2h0.8v0.8h0c0.3-0.6,0.9-0.9,1.6-0.9c1.3,0,1.7,0.7,1.7,1.8v3.2h-0.8v-3.3c0-0.6-0.4-1-1-1
		c-1,0-1.5,0.7-1.5,1.5v2.8h-0.8V124.2z"/>
	<path class="st1" d="M183.2,127.5c0,0.7,0.7,1,1.3,1c0.5,0,1.2-0.1,1.2-0.7c0-0.6-0.8-0.7-1.6-0.9c-0.8-0.2-1.6-0.4-1.6-1.4
		c0-1,1-1.4,1.8-1.4c1.1,0,1.9,0.3,2,1.5h-0.8c-0.1-0.6-0.6-0.8-1.1-0.8c-0.5,0-1,0.1-1,0.6c0,0.6,0.9,0.7,1.6,0.9
		c0.8,0.2,1.6,0.4,1.6,1.4c0,1.2-1.1,1.5-2.1,1.5c-1.1,0-2-0.4-2.1-1.7H183.2z"/>
	<path class="st1" d="M191.1,125.7c-0.1-0.6-0.6-1-1.2-1c-1.2,0-1.5,0.9-1.5,1.9c0,0.9,0.4,1.8,1.4,1.8c0.8,0,1.2-0.5,1.4-1.2h0.8
		c-0.2,1.2-0.9,1.9-2.2,1.9c-1.5,0-2.3-1-2.3-2.5c0-1.5,0.8-2.6,2.3-2.6c1.1,0,2,0.5,2.1,1.7H191.1z"/>
	<path class="st1" d="M193.1,122.3h0.8v2.6h0c0.3-0.6,1-0.8,1.5-0.8c1.3,0,1.7,0.7,1.7,1.8v3.2h-0.8v-3.3c0-0.6-0.4-1-1-1
		c-1,0-1.5,0.7-1.5,1.5v2.8h-0.8V122.3z"/>
	<path class="st1" d="M202.7,129.1h-0.8v-0.8h0c-0.3,0.6-0.9,0.9-1.6,0.9c-1.3,0-1.7-0.7-1.7-1.8v-3.2h0.8v3.3c0,0.6,0.4,1,1,1
		c1,0,1.5-0.7,1.5-1.5v-2.8h0.8V129.1z"/>
	<path class="st1" d="M205.2,124.2h1v0.7h-1v3.1c0,0.4,0.1,0.4,0.6,0.4h0.4v0.7h-0.6c-0.8,0-1.2-0.2-1.2-1.1v-3.1h-0.8v-0.7h0.8
		v-1.5h0.8V124.2z"/>
	<path class="st1" d="M206.9,128.5l3-3.6h-2.8v-0.7h3.8v0.6l-3,3.7h3.1v0.7h-4.1V128.5z"/>
	<path class="st1" d="M215.2,122.3h1.2l2.1,5.7l2.1-5.7h1.2v6.8h-0.9v-5.6h0l-2.1,5.6h-0.8l-2.1-5.6h0v5.6h-0.9V122.3z"/>
	<path class="st1" d="M227.7,127.5c-0.2,1.1-1,1.7-2.1,1.7c-1.6,0-2.3-1.1-2.4-2.6c0-1.5,1-2.6,2.3-2.6c1.7,0,2.3,1.6,2.2,2.8h-3.7
		c0,0.9,0.5,1.6,1.5,1.6c0.7,0,1.1-0.3,1.3-1H227.7z M226.9,126.2c0-0.8-0.6-1.4-1.4-1.4c-0.8,0-1.3,0.6-1.4,1.4H226.9z"/>
	<path class="st1" d="M233.2,129.1h-0.8v-0.7h0c-0.3,0.5-0.9,0.8-1.6,0.8c-1.5,0-2.3-1.2-2.3-2.6c0-1.4,0.7-2.6,2.2-2.6
		c0.5,0,1.2,0.2,1.6,0.8h0v-2.5h0.8V129.1z M231,128.5c1.1,0,1.5-0.9,1.5-1.9c0-1-0.4-1.9-1.5-1.9c-1.1,0-1.5,0.9-1.5,1.9
		C229.4,127.6,229.9,128.5,231,128.5z"/>
	<path class="st1" d="M235.6,123.3h-0.8v-1h0.8V123.3z M234.8,124.2h0.8v4.9h-0.8V124.2z"/>
	<path class="st1" d="M240.4,125.7c-0.1-0.6-0.6-1-1.2-1c-1.2,0-1.5,0.9-1.5,1.9c0,0.9,0.4,1.8,1.4,1.8c0.8,0,1.2-0.5,1.4-1.2h0.8
		c-0.2,1.2-0.9,1.9-2.2,1.9c-1.5,0-2.3-1-2.3-2.5c0-1.5,0.8-2.6,2.3-2.6c1.1,0,2,0.5,2.1,1.7H240.4z"/>
	<path class="st1" d="M246.8,129.1c-0.1,0.1-0.3,0.1-0.6,0.1c-0.4,0-0.7-0.2-0.7-0.8c-0.4,0.5-1,0.8-1.7,0.8c-0.9,0-1.6-0.4-1.6-1.4
		c0-1.1,0.8-1.3,1.7-1.5c0.9-0.2,1.7-0.1,1.7-0.7c0-0.7-0.6-0.8-1.1-0.8c-0.7,0-1.2,0.2-1.2,0.9h-0.8c0-1.2,1-1.6,2.1-1.6
		c0.9,0,1.8,0.2,1.8,1.3v2.5c0,0.4,0,0.6,0.3,0.6c0.1,0,0.1,0,0.2,0V129.1z M245.5,126.5c-0.3,0.2-0.9,0.2-1.5,0.3
		c-0.5,0.1-1,0.3-1,0.9c0,0.5,0.5,0.7,1,0.7c1.1,0,1.5-0.7,1.5-1.1V126.5z"/>
	<path class="st1" d="M247.8,122.3h0.8v6.8h-0.8V122.3z"/>
	<path class="st1" d="M257.9,124.3c-0.2-1-1-1.4-1.9-1.4c-1.6,0-2.3,1.3-2.3,2.7c0,1.5,0.7,2.8,2.3,2.8c1.2,0,1.9-0.8,2-2h0.9
		c-0.2,1.7-1.2,2.7-2.9,2.7c-2.1,0-3.1-1.6-3.1-3.5c0-2,1.1-3.6,3.2-3.6c1.4,0,2.6,0.8,2.8,2.2H257.9z"/>
	<path class="st1" d="M264.4,129.1c-0.1,0.1-0.3,0.1-0.6,0.1c-0.4,0-0.7-0.2-0.7-0.8c-0.4,0.5-1,0.8-1.7,0.8c-0.9,0-1.6-0.4-1.6-1.4
		c0-1.1,0.8-1.3,1.7-1.5c0.9-0.2,1.7-0.1,1.7-0.7c0-0.7-0.6-0.8-1.1-0.8c-0.7,0-1.2,0.2-1.2,0.9H260c0-1.2,1-1.6,2.1-1.6
		c0.9,0,1.8,0.2,1.8,1.3v2.5c0,0.4,0,0.6,0.3,0.6c0.1,0,0.1,0,0.2,0V129.1z M263.1,126.5c-0.3,0.2-0.9,0.2-1.5,0.3
		c-0.5,0.1-1,0.3-1,0.9c0,0.5,0.5,0.7,1,0.7c1.1,0,1.5-0.7,1.5-1.1V126.5z"/>
	<path class="st1" d="M265.4,124.2h0.8v0.7h0c0.4-0.6,0.9-0.8,1.6-0.8c0.6,0,1.2,0.2,1.3,0.8c0.3-0.5,0.9-0.8,1.5-0.8
		c1,0,1.6,0.4,1.6,1.4v3.6h-0.8v-3.2c0-0.6-0.2-1.1-1-1.1c-0.8,0-1.3,0.5-1.3,1.3v3.1h-0.8v-3.2c0-0.6-0.2-1.1-0.9-1.1
		c-1,0-1.3,0.9-1.3,1.3v3.1h-0.8V124.2z"/>
	<path class="st1" d="M273.8,124.2h0.8v0.7h0c0.3-0.5,0.9-0.8,1.6-0.8c1.5,0,2.3,1.2,2.3,2.6c0,1.4-0.7,2.6-2.2,2.6
		c-0.5,0-1.2-0.2-1.6-0.8h0v2.5h-0.8V124.2z M276,124.8c-1.1,0-1.5,0.9-1.5,1.9c0,1,0.4,1.9,1.5,1.9c1.1,0,1.5-0.9,1.5-1.9
		C277.6,125.7,277.1,124.8,276,124.8z"/>
	<path class="st1" d="M283.7,129.1h-0.8v-0.8h0c-0.3,0.6-0.9,0.9-1.6,0.9c-1.3,0-1.7-0.7-1.7-1.8v-3.2h0.8v3.3c0,0.6,0.4,1,1,1
		c1,0,1.5-0.7,1.5-1.5v-2.8h0.8V129.1z"/>
	<path class="st1" d="M285.6,127.5c0,0.7,0.7,1,1.3,1c0.5,0,1.2-0.1,1.2-0.7c0-0.6-0.8-0.7-1.6-0.9c-0.8-0.2-1.6-0.4-1.6-1.4
		c0-1,1-1.4,1.8-1.4c1.1,0,1.9,0.3,2,1.5H288c-0.1-0.6-0.6-0.8-1.1-0.8c-0.5,0-1,0.1-1,0.6c0,0.6,0.9,0.7,1.6,0.9
		c0.8,0.2,1.6,0.4,1.6,1.4c0,1.2-1.1,1.5-2.1,1.5c-1.1,0-2-0.4-2.1-1.7H285.6z"/>
</g>
</svg>
